<svg xmlns="http://www.w3.org/2000/svg" xmlns:xlink="http://www.w3.org/1999/xlink" width="150" zoomAndPan="magnify" viewBox="0 0 112.5 37.5" height="50" preserveAspectRatio="xMidYMid meet" version="1.0"><defs><g/></defs><g fill="#0076c2" fill-opacity="1"><g transform="translate(3.700002, 24.629574)"><g><path d="M 1.59375 -21.984375 L 7.96875 -21.984375 C 11.019531 -21.984375 13.628906 -20.9375 15.796875 -18.84375 C 17.960938 -16.757812 19.046875 -14.144531 19.046875 -11 C 19.046875 -7.84375 17.96875 -5.21875 15.8125 -3.125 C 13.65625 -1.039062 11.039062 0 7.96875 0 L 1.59375 0 Z M 6.609375 -4.46875 L 7.375 -4.46875 C 9.207031 -4.46875 10.703125 -5.082031 11.859375 -6.3125 C 13.023438 -7.550781 13.617188 -9.101562 13.640625 -10.96875 C 13.640625 -12.832031 13.054688 -14.382812 11.890625 -15.625 C 10.734375 -16.875 9.226562 -17.5 7.375 -17.5 L 6.609375 -17.5 Z M 6.609375 -4.46875 "/></g></g></g><g fill="#0076c2" fill-opacity="1"><g transform="translate(28.666788, 24.629574)"><g><path d="M 12.765625 -21.984375 L 21.625 0 L 16.25 0 L 14.625 -4.390625 L 6.265625 -4.390625 L 4.640625 0 L -0.75 0 L 8.125 -21.984375 Z M 12.921875 -8.796875 L 10.46875 -15.1875 L 10.421875 -15.1875 L 7.96875 -8.796875 Z M 12.921875 -8.796875 "/></g></g></g><g fill="#0076c2" fill-opacity="1"><g transform="translate(54.859235, 24.629574)"><g><path d="M 6.609375 -21.984375 L 6.609375 0 L 1.59375 0 L 1.59375 -21.984375 Z M 6.609375 -21.984375 "/></g></g></g><g fill="#0076c2" fill-opacity="1"><g transform="translate(68.368777, 24.629574)"><g><path d="M 13.296875 -4.53125 C 14.054688 -4.53125 14.796875 -4.644531 15.515625 -4.875 C 16.234375 -5.101562 16.765625 -5.328125 17.109375 -5.546875 L 17.609375 -5.890625 L 19.734375 -1.625 C 19.671875 -1.570312 19.578125 -1.5 19.453125 -1.40625 C 19.328125 -1.320312 19.035156 -1.160156 18.578125 -0.921875 C 18.128906 -0.679688 17.644531 -0.472656 17.125 -0.296875 C 16.613281 -0.117188 15.941406 0.0390625 15.109375 0.1875 C 14.273438 0.332031 13.410156 0.40625 12.515625 0.40625 C 10.472656 0.40625 8.535156 -0.09375 6.703125 -1.09375 C 4.878906 -2.101562 3.40625 -3.488281 2.28125 -5.25 C 1.164062 -7.007812 0.609375 -8.910156 0.609375 -10.953125 C 0.609375 -12.492188 0.9375 -13.972656 1.59375 -15.390625 C 2.25 -16.816406 3.125 -18.035156 4.21875 -19.046875 C 5.3125 -20.054688 6.585938 -20.863281 8.046875 -21.46875 C 9.503906 -22.070312 10.992188 -22.375 12.515625 -22.375 C 13.941406 -22.375 15.253906 -22.203125 16.453125 -21.859375 C 17.648438 -21.523438 18.5 -21.191406 19 -20.859375 L 19.734375 -20.359375 L 17.609375 -16.09375 C 17.484375 -16.195312 17.296875 -16.320312 17.046875 -16.46875 C 16.796875 -16.625 16.296875 -16.828125 15.546875 -17.078125 C 14.804688 -17.328125 14.054688 -17.453125 13.296875 -17.453125 C 12.085938 -17.453125 11.003906 -17.253906 10.046875 -16.859375 C 9.085938 -16.472656 8.328125 -15.957031 7.765625 -15.3125 C 7.203125 -14.675781 6.773438 -13.988281 6.484375 -13.25 C 6.191406 -12.507812 6.046875 -11.757812 6.046875 -11 C 6.046875 -9.332031 6.671875 -7.835938 7.921875 -6.515625 C 9.171875 -5.191406 10.960938 -4.53125 13.296875 -4.53125 Z M 13.296875 -4.53125 "/></g></g></g><g fill="#000000" fill-opacity="1"><g transform="translate(4.894539, 33.057786)"><g><path d="M 0.390625 0 L 0.390625 -4.4375 L 1.765625 -4.4375 C 2.148438 -4.4375 2.5 -4.347656 2.8125 -4.171875 C 3.125 -4.003906 3.363281 -3.753906 3.53125 -3.421875 C 3.707031 -3.097656 3.796875 -2.734375 3.796875 -2.328125 L 3.796875 -2.125 C 3.796875 -1.707031 3.707031 -1.335938 3.53125 -1.015625 C 3.363281 -0.691406 3.125 -0.441406 2.8125 -0.265625 C 2.507812 -0.0859375 2.160156 0 1.765625 0 Z M 1.3125 -3.703125 L 1.3125 -0.734375 L 1.75 -0.734375 C 2.113281 -0.734375 2.390625 -0.847656 2.578125 -1.078125 C 2.765625 -1.316406 2.859375 -1.65625 2.859375 -2.09375 L 2.859375 -2.328125 C 2.859375 -2.773438 2.765625 -3.113281 2.578125 -3.34375 C 2.390625 -3.582031 2.117188 -3.703125 1.765625 -3.703125 Z M 1.3125 -3.703125 "/></g></g></g><g fill="#000000" fill-opacity="1"><g transform="translate(13.030678, 33.057786)"><g><path d="M 1.859375 0.0625 C 1.367188 0.0625 0.972656 -0.0820312 0.671875 -0.375 C 0.367188 -0.675781 0.21875 -1.078125 0.21875 -1.578125 L 0.21875 -1.65625 C 0.21875 -1.988281 0.28125 -2.285156 0.40625 -2.546875 C 0.539062 -2.804688 0.722656 -3.003906 0.953125 -3.140625 C 1.191406 -3.285156 1.460938 -3.359375 1.765625 -3.359375 C 2.210938 -3.359375 2.566406 -3.21875 2.828125 -2.9375 C 3.085938 -2.65625 3.21875 -2.25 3.21875 -1.71875 L 3.21875 -1.359375 L 1.109375 -1.359375 C 1.140625 -1.148438 1.226562 -0.976562 1.375 -0.84375 C 1.519531 -0.71875 1.703125 -0.65625 1.921875 -0.65625 C 2.253906 -0.65625 2.519531 -0.773438 2.71875 -1.015625 L 3.140625 -0.53125 C 3.015625 -0.34375 2.835938 -0.195312 2.609375 -0.09375 C 2.378906 0.0078125 2.128906 0.0625 1.859375 0.0625 Z M 1.765625 -2.65625 C 1.585938 -2.65625 1.441406 -2.59375 1.328125 -2.46875 C 1.222656 -2.351562 1.15625 -2.1875 1.125 -1.96875 L 2.34375 -1.96875 L 2.34375 -2.03125 C 2.34375 -2.226562 2.289062 -2.378906 2.1875 -2.484375 C 2.082031 -2.597656 1.941406 -2.65625 1.765625 -2.65625 Z M 1.765625 -2.65625 "/></g></g></g><g fill="#000000" fill-opacity="1"><g transform="translate(20.483287, 33.057786)"><g><path d="M 1.265625 0 L 0.390625 0 L 0.390625 -4.6875 L 1.265625 -4.6875 Z M 1.265625 0 "/></g></g></g><g fill="#000000" fill-opacity="1"><g transform="translate(26.214863, 33.057786)"><g><path d="M 0.578125 0 L 0.578125 -2.65625 L 0.09375 -2.65625 L 0.09375 -3.296875 L 0.578125 -3.296875 L 0.578125 -3.578125 C 0.578125 -3.953125 0.679688 -4.238281 0.890625 -4.4375 C 1.109375 -4.644531 1.410156 -4.75 1.796875 -4.75 C 1.910156 -4.75 2.054688 -4.726562 2.234375 -4.6875 L 2.234375 -4 C 2.160156 -4.019531 2.070312 -4.03125 1.96875 -4.03125 C 1.632812 -4.03125 1.46875 -3.875 1.46875 -3.5625 L 1.46875 -3.296875 L 2.125 -3.296875 L 2.125 -2.65625 L 1.46875 -2.65625 L 1.46875 0 Z M 0.578125 0 "/></g></g></g><g fill="#000000" fill-opacity="1"><g transform="translate(32.52927, 33.057786)"><g><path d="M 1.390625 -4.109375 L 1.390625 -3.296875 L 1.953125 -3.296875 L 1.953125 -2.65625 L 1.390625 -2.65625 L 1.390625 -1 C 1.390625 -0.882812 1.410156 -0.800781 1.453125 -0.75 C 1.503906 -0.695312 1.597656 -0.671875 1.734375 -0.671875 C 1.828125 -0.671875 1.914062 -0.675781 2 -0.6875 L 2 -0.015625 C 1.820312 0.0351562 1.640625 0.0625 1.453125 0.0625 C 0.835938 0.0625 0.523438 -0.25 0.515625 -0.875 L 0.515625 -2.65625 L 0.03125 -2.65625 L 0.03125 -3.296875 L 0.515625 -3.296875 L 0.515625 -4.109375 Z M 1.390625 -4.109375 "/></g></g></g><g fill="#000000" fill-opacity="1"><g transform="translate(38.715515, 33.057786)"><g/></g></g><g fill="#000000" fill-opacity="1"><g transform="translate(44.346391, 33.057786)"><g><path d="M 2.90625 -0.921875 L 1.296875 -0.921875 L 1 0 L 0.015625 0 L 1.671875 -4.4375 L 2.53125 -4.4375 L 4.1875 0 L 3.21875 0 Z M 1.546875 -1.65625 L 2.65625 -1.65625 L 2.09375 -3.328125 Z M 1.546875 -1.65625 "/></g></g></g><g fill="#000000" fill-opacity="1"><g transform="translate(52.625948, 33.057786)"><g><path d="M 1.375 0 L 0.453125 0 L 0.453125 -4.4375 L 1.375 -4.4375 Z M 1.375 0 "/></g></g></g><g fill="#000000" fill-opacity="1"><g transform="translate(58.522302, 33.057786)"><g/></g></g><g fill="#000000" fill-opacity="1"><g transform="translate(64.153178, 33.057786)"><g><path d="M 3.890625 -1.484375 C 3.847656 -1.003906 3.664062 -0.625 3.34375 -0.34375 C 3.03125 -0.0703125 2.613281 0.0625 2.09375 0.0625 C 1.519531 0.0625 1.070312 -0.128906 0.75 -0.515625 C 0.425781 -0.898438 0.265625 -1.425781 0.265625 -2.09375 L 0.265625 -2.359375 C 0.265625 -2.785156 0.335938 -3.160156 0.484375 -3.484375 C 0.640625 -3.816406 0.851562 -4.066406 1.125 -4.234375 C 1.40625 -4.410156 1.734375 -4.5 2.109375 -4.5 C 2.617188 -4.5 3.03125 -4.363281 3.34375 -4.09375 C 3.65625 -3.820312 3.835938 -3.4375 3.890625 -2.9375 L 2.96875 -2.9375 C 2.945312 -3.21875 2.867188 -3.421875 2.734375 -3.546875 C 2.597656 -3.679688 2.390625 -3.75 2.109375 -3.75 C 1.804688 -3.75 1.578125 -3.640625 1.421875 -3.421875 C 1.273438 -3.203125 1.195312 -2.863281 1.1875 -2.40625 L 1.1875 -2.078125 C 1.1875 -1.597656 1.257812 -1.242188 1.40625 -1.015625 C 1.550781 -0.796875 1.78125 -0.6875 2.09375 -0.6875 C 2.375 -0.6875 2.582031 -0.75 2.71875 -0.875 C 2.863281 -1.007812 2.945312 -1.210938 2.96875 -1.484375 Z M 3.890625 -1.484375 "/></g></g></g><g fill="#000000" fill-opacity="1"><g transform="translate(72.316784, 33.057786)"><g><path d="M 1.265625 0 L 0.390625 0 L 0.390625 -4.6875 L 1.265625 -4.6875 Z M 1.265625 0 "/></g></g></g><g fill="#000000" fill-opacity="1"><g transform="translate(78.048362, 33.057786)"><g><path d="M 2.3125 -0.328125 C 2.09375 -0.0664062 1.789062 0.0625 1.40625 0.0625 C 1.050781 0.0625 0.78125 -0.0351562 0.59375 -0.234375 C 0.414062 -0.441406 0.320312 -0.742188 0.3125 -1.140625 L 0.3125 -3.296875 L 1.203125 -3.296875 L 1.203125 -1.171875 C 1.203125 -0.828125 1.359375 -0.65625 1.671875 -0.65625 C 1.972656 -0.65625 2.175781 -0.757812 2.28125 -0.96875 L 2.28125 -3.296875 L 3.171875 -3.296875 L 3.171875 0 L 2.34375 0 Z M 2.3125 -0.328125 "/></g></g></g><g fill="#000000" fill-opacity="1"><g transform="translate(85.619981, 33.057786)"><g><path d="M 2.125 -0.90625 C 2.125 -1.019531 2.070312 -1.109375 1.96875 -1.171875 C 1.863281 -1.234375 1.691406 -1.285156 1.453125 -1.328125 C 0.671875 -1.492188 0.28125 -1.828125 0.28125 -2.328125 C 0.28125 -2.628906 0.398438 -2.875 0.640625 -3.0625 C 0.878906 -3.257812 1.195312 -3.359375 1.59375 -3.359375 C 2.007812 -3.359375 2.34375 -3.257812 2.59375 -3.0625 C 2.84375 -2.863281 2.96875 -2.609375 2.96875 -2.296875 L 2.09375 -2.296875 C 2.09375 -2.421875 2.050781 -2.523438 1.96875 -2.609375 C 1.882812 -2.691406 1.757812 -2.734375 1.59375 -2.734375 C 1.445312 -2.734375 1.332031 -2.695312 1.25 -2.625 C 1.164062 -2.5625 1.125 -2.476562 1.125 -2.375 C 1.125 -2.28125 1.171875 -2.203125 1.265625 -2.140625 C 1.359375 -2.078125 1.515625 -2.023438 1.734375 -1.984375 C 1.953125 -1.941406 2.132812 -1.894531 2.28125 -1.84375 C 2.75 -1.664062 2.984375 -1.367188 2.984375 -0.953125 C 2.984375 -0.648438 2.851562 -0.40625 2.59375 -0.21875 C 2.332031 -0.03125 2 0.0625 1.59375 0.0625 C 1.320312 0.0625 1.078125 0.015625 0.859375 -0.078125 C 0.640625 -0.179688 0.46875 -0.316406 0.34375 -0.484375 C 0.226562 -0.660156 0.171875 -0.847656 0.171875 -1.046875 L 1 -1.046875 C 1.007812 -0.890625 1.066406 -0.769531 1.171875 -0.6875 C 1.285156 -0.601562 1.429688 -0.5625 1.609375 -0.5625 C 1.785156 -0.5625 1.914062 -0.59375 2 -0.65625 C 2.082031 -0.71875 2.125 -0.800781 2.125 -0.90625 Z M 2.125 -0.90625 "/></g></g></g><g fill="#000000" fill-opacity="1"><g transform="translate(92.907813, 33.057786)"><g><path d="M 1.390625 -4.109375 L 1.390625 -3.296875 L 1.953125 -3.296875 L 1.953125 -2.65625 L 1.390625 -2.65625 L 1.390625 -1 C 1.390625 -0.882812 1.410156 -0.800781 1.453125 -0.75 C 1.503906 -0.695312 1.597656 -0.671875 1.734375 -0.671875 C 1.828125 -0.671875 1.914062 -0.675781 2 -0.6875 L 2 -0.015625 C 1.820312 0.0351562 1.640625 0.0625 1.453125 0.0625 C 0.835938 0.0625 0.523438 -0.25 0.515625 -0.875 L 0.515625 -2.65625 L 0.03125 -2.65625 L 0.03125 -3.296875 L 0.515625 -3.296875 L 0.515625 -4.109375 Z M 1.390625 -4.109375 "/></g></g></g><g fill="#000000" fill-opacity="1"><g transform="translate(99.094062, 33.057786)"><g><path d="M 1.859375 0.0625 C 1.367188 0.0625 0.972656 -0.0820312 0.671875 -0.375 C 0.367188 -0.675781 0.21875 -1.078125 0.21875 -1.578125 L 0.21875 -1.65625 C 0.21875 -1.988281 0.28125 -2.285156 0.40625 -2.546875 C 0.539062 -2.804688 0.722656 -3.003906 0.953125 -3.140625 C 1.191406 -3.285156 1.460938 -3.359375 1.765625 -3.359375 C 2.210938 -3.359375 2.566406 -3.21875 2.828125 -2.9375 C 3.085938 -2.65625 3.21875 -2.25 3.21875 -1.71875 L 3.21875 -1.359375 L 1.109375 -1.359375 C 1.140625 -1.148438 1.226562 -0.976562 1.375 -0.84375 C 1.519531 -0.71875 1.703125 -0.65625 1.921875 -0.65625 C 2.253906 -0.65625 2.519531 -0.773438 2.71875 -1.015625 L 3.140625 -0.53125 C 3.015625 -0.34375 2.835938 -0.195312 2.609375 -0.09375 C 2.378906 0.0078125 2.128906 0.0625 1.859375 0.0625 Z M 1.765625 -2.65625 C 1.585938 -2.65625 1.441406 -2.59375 1.328125 -2.46875 C 1.222656 -2.351562 1.15625 -2.1875 1.125 -1.96875 L 2.34375 -1.96875 L 2.34375 -2.03125 C 2.34375 -2.226562 2.289062 -2.378906 2.1875 -2.484375 C 2.082031 -2.597656 1.941406 -2.65625 1.765625 -2.65625 Z M 1.765625 -2.65625 "/></g></g></g><g fill="#000000" fill-opacity="1"><g transform="translate(106.546673, 33.057786)"><g><path d="M 2.1875 -2.46875 C 2.070312 -2.488281 1.96875 -2.5 1.875 -2.5 C 1.539062 -2.5 1.320312 -2.382812 1.21875 -2.15625 L 1.21875 0 L 0.34375 0 L 0.34375 -3.296875 L 1.171875 -3.296875 L 1.203125 -2.90625 C 1.378906 -3.207031 1.625 -3.359375 1.9375 -3.359375 C 2.03125 -3.359375 2.117188 -3.347656 2.203125 -3.328125 Z M 2.1875 -2.46875 "/></g></g></g><g fill="#5c5c5c" fill-opacity="1"><g transform="translate(92.254898, 13.439657)"><g><path d="M 0.234375 -0.46875 C 0.203125 -0.519531 0.1875 -0.570312 0.1875 -0.625 C 0.1875 -0.695312 0.222656 -0.757812 0.296875 -0.8125 C 0.335938 -0.84375 0.382812 -0.859375 0.4375 -0.859375 C 0.5 -0.859375 0.5625 -0.828125 0.625 -0.765625 C 0.738281 -0.640625 0.859375 -0.539062 0.984375 -0.46875 C 1.117188 -0.40625 1.273438 -0.375 1.453125 -0.375 C 1.597656 -0.382812 1.722656 -0.421875 1.828125 -0.484375 C 1.941406 -0.546875 2 -0.644531 2 -0.78125 C 2 -0.914062 1.941406 -1.015625 1.828125 -1.078125 C 1.722656 -1.148438 1.5625 -1.210938 1.34375 -1.265625 C 1.132812 -1.328125 0.957031 -1.390625 0.8125 -1.453125 C 0.675781 -1.515625 0.554688 -1.601562 0.453125 -1.71875 C 0.359375 -1.84375 0.3125 -2.003906 0.3125 -2.203125 C 0.3125 -2.367188 0.359375 -2.515625 0.453125 -2.640625 C 0.554688 -2.773438 0.6875 -2.878906 0.84375 -2.953125 C 1.007812 -3.023438 1.1875 -3.0625 1.375 -3.0625 C 1.550781 -3.0625 1.726562 -3.023438 1.90625 -2.953125 C 2.09375 -2.890625 2.242188 -2.785156 2.359375 -2.640625 C 2.398438 -2.585938 2.421875 -2.53125 2.421875 -2.46875 C 2.421875 -2.414062 2.394531 -2.359375 2.34375 -2.296875 C 2.300781 -2.265625 2.253906 -2.25 2.203125 -2.25 C 2.128906 -2.25 2.070312 -2.269531 2.03125 -2.3125 C 1.945312 -2.40625 1.847656 -2.472656 1.734375 -2.515625 C 1.617188 -2.566406 1.492188 -2.59375 1.359375 -2.59375 C 1.210938 -2.59375 1.085938 -2.5625 0.984375 -2.5 C 0.878906 -2.445312 0.828125 -2.351562 0.828125 -2.21875 C 0.835938 -2.082031 0.894531 -1.976562 1 -1.90625 C 1.113281 -1.84375 1.285156 -1.785156 1.515625 -1.734375 C 1.722656 -1.671875 1.890625 -1.609375 2.015625 -1.546875 C 2.148438 -1.492188 2.265625 -1.40625 2.359375 -1.28125 C 2.453125 -1.164062 2.5 -1.007812 2.5 -0.8125 C 2.5 -0.632812 2.445312 -0.476562 2.34375 -0.34375 C 2.238281 -0.21875 2.101562 -0.117188 1.9375 -0.046875 C 1.769531 0.0234375 1.597656 0.0625 1.421875 0.0625 C 1.179688 0.0625 0.957031 0.0195312 0.75 -0.0625 C 0.539062 -0.144531 0.367188 -0.28125 0.234375 -0.46875 Z M 0.234375 -0.46875 "/></g></g></g><g fill="#5c5c5c" fill-opacity="1"><g transform="translate(95.314067, 13.439657)"><g><path d="M 0.921875 -0.28125 C 0.921875 -0.195312 0.894531 -0.128906 0.84375 -0.078125 C 0.789062 -0.0234375 0.722656 0 0.640625 0 C 0.566406 0 0.503906 -0.0234375 0.453125 -0.078125 C 0.398438 -0.128906 0.375 -0.195312 0.375 -0.28125 L 0.375 -2.75 C 0.375 -2.820312 0.398438 -2.882812 0.453125 -2.9375 C 0.503906 -2.988281 0.566406 -3.015625 0.640625 -3.015625 C 0.722656 -3.015625 0.789062 -2.988281 0.84375 -2.9375 C 0.894531 -2.882812 0.921875 -2.820312 0.921875 -2.75 Z M 0.640625 -3.390625 C 0.523438 -3.390625 0.441406 -3.410156 0.390625 -3.453125 C 0.347656 -3.492188 0.328125 -3.554688 0.328125 -3.640625 L 0.328125 -3.734375 C 0.328125 -3.828125 0.351562 -3.890625 0.40625 -3.921875 C 0.457031 -3.960938 0.535156 -3.984375 0.640625 -3.984375 C 0.753906 -3.984375 0.832031 -3.960938 0.875 -3.921875 C 0.925781 -3.878906 0.953125 -3.816406 0.953125 -3.734375 L 0.953125 -3.640625 C 0.953125 -3.546875 0.925781 -3.476562 0.875 -3.4375 C 0.820312 -3.40625 0.742188 -3.390625 0.640625 -3.390625 Z M 0.640625 -3.390625 "/></g></g></g><g fill="#5c5c5c" fill-opacity="1"><g transform="translate(96.949038, 13.439657)"><g><path d="M 1.921875 -3.0625 C 2.609375 -3.0625 2.953125 -2.648438 2.953125 -1.828125 L 2.953125 -0.28125 C 2.953125 -0.195312 2.925781 -0.128906 2.875 -0.078125 C 2.820312 -0.0234375 2.757812 0 2.6875 0 C 2.601562 0 2.535156 -0.0234375 2.484375 -0.078125 C 2.429688 -0.128906 2.40625 -0.195312 2.40625 -0.28125 L 2.40625 -1.8125 C 2.40625 -2.039062 2.351562 -2.222656 2.25 -2.359375 C 2.15625 -2.492188 1.988281 -2.5625 1.75 -2.5625 C 1.601562 -2.5625 1.46875 -2.523438 1.34375 -2.453125 C 1.21875 -2.390625 1.117188 -2.300781 1.046875 -2.1875 C 0.984375 -2.070312 0.953125 -1.945312 0.953125 -1.8125 L 0.953125 -0.28125 C 0.953125 -0.195312 0.925781 -0.128906 0.875 -0.078125 C 0.820312 -0.0234375 0.753906 0 0.671875 0 C 0.585938 0 0.519531 -0.0234375 0.46875 -0.078125 C 0.425781 -0.128906 0.40625 -0.195312 0.40625 -0.28125 L 0.40625 -2.71875 C 0.40625 -2.789062 0.429688 -2.851562 0.484375 -2.90625 C 0.535156 -2.957031 0.597656 -2.984375 0.671875 -2.984375 C 0.753906 -2.984375 0.820312 -2.957031 0.875 -2.90625 C 0.925781 -2.851562 0.953125 -2.789062 0.953125 -2.71875 L 0.953125 -2.515625 C 1.046875 -2.671875 1.179688 -2.800781 1.359375 -2.90625 C 1.535156 -3.007812 1.722656 -3.0625 1.921875 -3.0625 Z M 1.921875 -3.0625 "/></g></g></g><g fill="#5c5c5c" fill-opacity="1"><g transform="translate(100.646245, 13.439657)"><g><path d="M 1.703125 -3.0625 C 2.003906 -3.0625 2.253906 -3.007812 2.453125 -2.90625 C 2.648438 -2.8125 2.75 -2.691406 2.75 -2.546875 C 2.75 -2.484375 2.726562 -2.425781 2.6875 -2.375 C 2.644531 -2.320312 2.59375 -2.296875 2.53125 -2.296875 C 2.476562 -2.296875 2.4375 -2.300781 2.40625 -2.3125 C 2.382812 -2.332031 2.347656 -2.359375 2.296875 -2.390625 C 2.273438 -2.410156 2.238281 -2.4375 2.1875 -2.46875 C 2.144531 -2.5 2.082031 -2.519531 2 -2.53125 C 1.914062 -2.550781 1.835938 -2.5625 1.765625 -2.5625 C 1.566406 -2.5625 1.390625 -2.515625 1.234375 -2.421875 C 1.085938 -2.328125 0.972656 -2.195312 0.890625 -2.03125 C 0.804688 -1.875 0.765625 -1.695312 0.765625 -1.5 C 0.765625 -1.300781 0.804688 -1.117188 0.890625 -0.953125 C 0.972656 -0.796875 1.085938 -0.671875 1.234375 -0.578125 C 1.378906 -0.484375 1.546875 -0.4375 1.734375 -0.4375 C 1.929688 -0.4375 2.09375 -0.46875 2.21875 -0.53125 C 2.25 -0.550781 2.285156 -0.578125 2.328125 -0.609375 C 2.367188 -0.640625 2.398438 -0.660156 2.421875 -0.671875 C 2.453125 -0.691406 2.488281 -0.703125 2.53125 -0.703125 C 2.601562 -0.703125 2.660156 -0.675781 2.703125 -0.625 C 2.753906 -0.582031 2.78125 -0.519531 2.78125 -0.4375 C 2.78125 -0.363281 2.726562 -0.285156 2.625 -0.203125 C 2.519531 -0.128906 2.382812 -0.0664062 2.21875 -0.015625 C 2.050781 0.0351562 1.867188 0.0625 1.671875 0.0625 C 1.390625 0.0625 1.132812 -0.00390625 0.90625 -0.140625 C 0.6875 -0.273438 0.515625 -0.460938 0.390625 -0.703125 C 0.273438 -0.941406 0.21875 -1.207031 0.21875 -1.5 C 0.21875 -1.789062 0.28125 -2.054688 0.40625 -2.296875 C 0.53125 -2.535156 0.703125 -2.722656 0.921875 -2.859375 C 1.148438 -2.992188 1.410156 -3.0625 1.703125 -3.0625 Z M 1.703125 -3.0625 "/></g></g></g><g fill="#5c5c5c" fill-opacity="1"><g transform="translate(103.916195, 13.439657)"><g><path d="M 3.03125 -1.609375 C 3.019531 -1.535156 2.988281 -1.472656 2.9375 -1.421875 C 2.882812 -1.378906 2.820312 -1.359375 2.75 -1.359375 L 0.75 -1.359375 C 0.769531 -1.085938 0.875 -0.863281 1.0625 -0.6875 C 1.25 -0.519531 1.472656 -0.4375 1.734375 -0.4375 C 1.921875 -0.4375 2.070312 -0.460938 2.1875 -0.515625 C 2.300781 -0.578125 2.398438 -0.648438 2.484375 -0.734375 C 2.546875 -0.765625 2.601562 -0.78125 2.65625 -0.78125 C 2.71875 -0.78125 2.769531 -0.753906 2.8125 -0.703125 C 2.851562 -0.660156 2.875 -0.609375 2.875 -0.546875 C 2.875 -0.472656 2.835938 -0.40625 2.765625 -0.34375 C 2.648438 -0.226562 2.5 -0.128906 2.3125 -0.046875 C 2.132812 0.0234375 1.953125 0.0625 1.765625 0.0625 C 1.460938 0.0625 1.191406 0 0.953125 -0.125 C 0.722656 -0.257812 0.539062 -0.441406 0.40625 -0.671875 C 0.28125 -0.910156 0.21875 -1.175781 0.21875 -1.46875 C 0.21875 -1.78125 0.28125 -2.054688 0.40625 -2.296875 C 0.539062 -2.546875 0.71875 -2.734375 0.9375 -2.859375 C 1.15625 -2.992188 1.382812 -3.0625 1.625 -3.0625 C 1.875 -3.0625 2.101562 -3 2.3125 -2.875 C 2.53125 -2.75 2.703125 -2.570312 2.828125 -2.34375 C 2.953125 -2.125 3.019531 -1.878906 3.03125 -1.609375 Z M 1.625 -2.5625 C 1.414062 -2.5625 1.234375 -2.5 1.078125 -2.375 C 0.921875 -2.257812 0.816406 -2.070312 0.765625 -1.8125 L 2.453125 -1.8125 L 2.453125 -1.859375 C 2.429688 -2.066406 2.335938 -2.234375 2.171875 -2.359375 C 2.015625 -2.492188 1.832031 -2.5625 1.625 -2.5625 Z M 1.625 -2.5625 "/></g></g></g><g fill="#5c5c5c" fill-opacity="1"><g transform="translate(93.285948, 18.661666)"><g><path d="M 2.671875 -0.5 C 2.742188 -0.5 2.800781 -0.472656 2.84375 -0.421875 C 2.894531 -0.378906 2.921875 -0.320312 2.921875 -0.25 C 2.921875 -0.175781 2.894531 -0.113281 2.84375 -0.0625 C 2.800781 -0.0195312 2.742188 0 2.671875 0 L 0.640625 0 C 0.566406 0 0.503906 -0.0195312 0.453125 -0.0625 C 0.398438 -0.113281 0.375 -0.179688 0.375 -0.265625 C 0.375 -0.328125 0.40625 -0.390625 0.46875 -0.453125 L 1.734375 -1.84375 C 2.085938 -2.21875 2.265625 -2.546875 2.265625 -2.828125 C 2.265625 -3.035156 2.195312 -3.207031 2.0625 -3.34375 C 1.925781 -3.476562 1.753906 -3.546875 1.546875 -3.546875 C 1.398438 -3.546875 1.265625 -3.503906 1.140625 -3.421875 C 1.015625 -3.347656 0.910156 -3.234375 0.828125 -3.078125 C 0.765625 -3.003906 0.691406 -2.96875 0.609375 -2.96875 C 0.546875 -2.96875 0.484375 -2.988281 0.421875 -3.03125 C 0.367188 -3.082031 0.34375 -3.140625 0.34375 -3.203125 C 0.34375 -3.253906 0.351562 -3.300781 0.375 -3.34375 C 0.40625 -3.382812 0.445312 -3.4375 0.5 -3.5 C 0.632812 -3.664062 0.796875 -3.796875 0.984375 -3.890625 C 1.179688 -3.992188 1.378906 -4.046875 1.578125 -4.046875 C 1.828125 -4.046875 2.046875 -3.992188 2.234375 -3.890625 C 2.421875 -3.785156 2.5625 -3.644531 2.65625 -3.46875 C 2.757812 -3.289062 2.8125 -3.085938 2.8125 -2.859375 C 2.8125 -2.421875 2.578125 -1.945312 2.109375 -1.4375 L 1.25 -0.5 Z M 2.671875 -0.5 "/></g></g></g><g fill="#5c5c5c" fill-opacity="1"><g transform="translate(96.755282, 18.661666)"><g><path d="M 1.734375 0.0625 C 1.421875 0.0625 1.148438 -0.0234375 0.921875 -0.203125 C 0.703125 -0.378906 0.535156 -0.617188 0.421875 -0.921875 C 0.316406 -1.234375 0.265625 -1.59375 0.265625 -2 C 0.265625 -2.394531 0.316406 -2.75 0.421875 -3.0625 C 0.535156 -3.375 0.703125 -3.613281 0.921875 -3.78125 C 1.148438 -3.957031 1.421875 -4.046875 1.734375 -4.046875 C 2.046875 -4.046875 2.3125 -3.957031 2.53125 -3.78125 C 2.75 -3.613281 2.910156 -3.375 3.015625 -3.0625 C 3.128906 -2.75 3.1875 -2.394531 3.1875 -2 C 3.1875 -1.59375 3.128906 -1.234375 3.015625 -0.921875 C 2.910156 -0.617188 2.75 -0.378906 2.53125 -0.203125 C 2.3125 -0.0234375 2.046875 0.0625 1.734375 0.0625 Z M 1.734375 -0.484375 C 2.003906 -0.484375 2.21875 -0.613281 2.375 -0.875 C 2.53125 -1.144531 2.609375 -1.519531 2.609375 -2 C 2.609375 -2.476562 2.53125 -2.847656 2.375 -3.109375 C 2.21875 -3.367188 2.003906 -3.5 1.734375 -3.5 C 1.453125 -3.5 1.234375 -3.367188 1.078125 -3.109375 C 0.921875 -2.847656 0.84375 -2.476562 0.84375 -2 C 0.84375 -1.519531 0.921875 -1.144531 1.078125 -0.875 C 1.234375 -0.613281 1.453125 -0.484375 1.734375 -0.484375 Z M 1.734375 -0.484375 "/></g></g></g><g fill="#5c5c5c" fill-opacity="1"><g transform="translate(100.549332, 18.661666)"><g><path d="M 1.265625 -4 C 1.347656 -3.988281 1.410156 -3.957031 1.453125 -3.90625 C 1.503906 -3.851562 1.53125 -3.789062 1.53125 -3.71875 L 1.53125 -0.28125 C 1.53125 -0.195312 1.5 -0.128906 1.4375 -0.078125 C 1.382812 -0.0234375 1.316406 0 1.234375 0 C 1.148438 0 1.082031 -0.0234375 1.03125 -0.078125 C 0.976562 -0.128906 0.953125 -0.195312 0.953125 -0.28125 L 0.953125 -3.234375 L 0.4375 -2.9375 C 0.394531 -2.90625 0.347656 -2.890625 0.296875 -2.890625 C 0.222656 -2.890625 0.160156 -2.921875 0.109375 -2.984375 C 0.0546875 -3.046875 0.03125 -3.109375 0.03125 -3.171875 C 0.03125 -3.222656 0.0390625 -3.269531 0.0625 -3.3125 C 0.09375 -3.351562 0.128906 -3.382812 0.171875 -3.40625 L 1.078125 -3.953125 C 1.128906 -3.984375 1.191406 -4 1.265625 -4 Z M 1.265625 -4 "/></g></g></g><g fill="#5c5c5c" fill-opacity="1"><g transform="translate(102.890708, 18.661666)"><g><path d="M 1.515625 -2.671875 C 1.765625 -2.671875 1.988281 -2.613281 2.1875 -2.5 C 2.394531 -2.382812 2.550781 -2.226562 2.65625 -2.03125 C 2.769531 -1.832031 2.828125 -1.609375 2.828125 -1.359375 C 2.828125 -1.097656 2.757812 -0.859375 2.625 -0.640625 C 2.488281 -0.429688 2.304688 -0.265625 2.078125 -0.140625 C 1.847656 -0.015625 1.59375 0.046875 1.3125 0.046875 C 1.15625 0.046875 1 0.0195312 0.84375 -0.03125 C 0.6875 -0.0820312 0.554688 -0.148438 0.453125 -0.234375 C 0.410156 -0.265625 0.378906 -0.304688 0.359375 -0.359375 C 0.335938 -0.410156 0.328125 -0.457031 0.328125 -0.5 C 0.328125 -0.5625 0.347656 -0.613281 0.390625 -0.65625 C 0.441406 -0.707031 0.503906 -0.734375 0.578125 -0.734375 C 0.628906 -0.734375 0.695312 -0.707031 0.78125 -0.65625 C 0.945312 -0.53125 1.125 -0.46875 1.3125 -0.46875 C 1.488281 -0.46875 1.648438 -0.503906 1.796875 -0.578125 C 1.953125 -0.660156 2.070312 -0.769531 2.15625 -0.90625 C 2.25 -1.039062 2.296875 -1.191406 2.296875 -1.359375 C 2.296875 -1.597656 2.210938 -1.789062 2.046875 -1.9375 C 1.890625 -2.09375 1.691406 -2.171875 1.453125 -2.171875 C 1.347656 -2.171875 1.253906 -2.15625 1.171875 -2.125 C 1.097656 -2.101562 1.003906 -2.0625 0.890625 -2 C 0.847656 -1.976562 0.804688 -1.957031 0.765625 -1.9375 C 0.722656 -1.925781 0.6875 -1.921875 0.65625 -1.921875 C 0.539062 -1.921875 0.457031 -1.953125 0.40625 -2.015625 C 0.351562 -2.078125 0.328125 -2.148438 0.328125 -2.234375 L 0.328125 -2.296875 L 0.53125 -3.78125 C 0.539062 -3.832031 0.570312 -3.878906 0.625 -3.921875 C 0.675781 -3.972656 0.738281 -4 0.8125 -4 L 2.5 -4 C 2.5625 -4 2.617188 -3.972656 2.671875 -3.921875 C 2.722656 -3.867188 2.75 -3.804688 2.75 -3.734375 C 2.75 -3.660156 2.722656 -3.597656 2.671875 -3.546875 C 2.617188 -3.503906 2.5625 -3.484375 2.5 -3.484375 L 1 -3.484375 L 0.859375 -2.515625 C 0.941406 -2.554688 1.039062 -2.59375 1.15625 -2.625 C 1.28125 -2.65625 1.398438 -2.671875 1.515625 -2.671875 Z M 1.515625 -2.671875 "/></g></g></g></svg>